<?xml version="1.0" standalone="no"?>
<!DOCTYPE svg PUBLIC "-//W3C//DTD SVG 20010904//EN"
 "http://www.w3.org/TR/2001/REC-SVG-20010904/DTD/svg10.dtd">
<svg version="1.0" xmlns="http://www.w3.org/2000/svg"
 width="531.000000pt" height="620.000000pt" viewBox="0 0 531.000000 620.000000"
 preserveAspectRatio="xMidYMid meet">

<g transform="translate(0.000000,620.000000) scale(0.100000,-0.100000)"
fill="#000000" stroke="none">
<path d="M250 5941 c0 -8 511 -4 535 4 6 2 -113 4 -262 4 -152 1 -273 -3 -273
-8z"/>
<path d="M3640 5940 c58 -4 251 -10 430 -14 374 -8 447 -13 477 -32 25 -16 47
-19 38 -5 -3 5 -1 12 5 16 6 3 10 -3 10 -15 0 -13 5 -20 13 -17 6 2 24 0 40
-4 16 -5 27 -4 27 2 0 6 4 7 10 4 20 -12 267 -18 274 -6 4 6 12 9 17 6 5 -3 6
0 3 8 -3 8 -1 18 5 22 7 4 11 -13 11 -52 1 -266 11 -1180 15 -1348 3 -115 6
-842 6 -1615 0 -1573 0 -1573 -66 -1765 -10 -27 -24 -57 -31 -66 -8 -8 -14
-20 -14 -26 0 -5 -10 -19 -23 -31 -22 -21 -23 -21 -24 -2 -1 11 2 20 8 20 5 0
9 5 9 10 0 21 -17 8 -54 -41 -67 -90 -190 -153 -354 -180 -37 -6 -85 -11 -106
-10 -49 0 -35 -16 19 -22 58 -5 -33 -7 -565 -11 -465 -4 -552 -10 -655 -43
-90 -29 -213 -91 -273 -136 -67 -52 -176 -166 -204 -214 -23 -38 -34 -41 -43
-13 -5 14 2 29 25 51 31 31 35 54 5 29 -13 -11 -24 -3 -74 51 -55 60 -60 63
-73 46 -13 -18 -17 -17 -65 25 -96 82 -275 162 -420 187 -32 6 -303 13 -603
16 -520 6 -546 7 -572 25 -33 24 -47 25 -54 5 -4 -8 -11 -15 -16 -15 -6 0 -6
5 1 14 10 11 -1 18 -61 35 -94 28 -169 66 -219 114 -45 42 -53 45 -46 17 3
-11 1 -20 -4 -20 -5 0 -9 7 -9 15 0 8 -4 15 -10 15 -30 0 -118 179 -138 285
-32 165 -40 583 -56 3185 -3 472 -8 616 -22 629 -9 8 5 -3135 16 -3454 11
-360 33 -466 130 -618 73 -116 188 -201 322 -237 114 -31 333 -41 853 -39 278
1 443 -3 489 -10 223 -38 481 -212 574 -388 18 -35 35 -63 37 -63 2 0 24 32
50 70 127 191 294 315 500 371 78 22 94 22 690 23 683 1 647 -2 811 76 83 40
111 60 159 112 61 66 107 153 143 269 46 152 47 169 47 1509 0 1402 -12 3240
-21 3249 -3 3 -342 7 -752 7 -411 1 -700 -2 -642 -6z m1214 -4985 c-4 -8 -11
-12 -16 -9 -6 4 -5 10 3 15 19 12 19 11 13 -6z m-4314 -65 c0 -5 -2 -10 -4
-10 -3 0 -8 5 -11 10 -3 6 -1 10 4 10 6 0 11 -4 11 -10z m305 -100 c3 -5 1
-10 -4 -10 -6 0 -11 5 -11 10 0 6 2 10 4 10 3 0 8 -4 11 -10z"/>
<path d="M222 5890 c0 -14 2 -19 5 -12 2 6 2 18 0 25 -3 6 -5 1 -5 -13z"/>
<path d="M2917 5834 c-2 -2 -494 -5 -1093 -6 -1098 -2 -1451 -7 -1446 -20 5
-17 1 -20 -12 -9 -11 9 -13 5 -10 -26 2 -21 6 -938 9 -2038 7 -2306 7 -2343
44 -2487 55 -216 153 -314 361 -365 68 -16 127 -18 650 -18 511 0 582 -2 640
-17 213 -57 389 -151 521 -282 l66 -65 49 51 c140 143 344 255 537 294 104 21
583 30 766 14 85 -7 127 -7 129 0 2 5 8 10 13 10 6 0 7 -5 3 -11 -5 -8 39 -10
162 -7 147 5 179 9 247 31 150 50 224 114 296 260 81 163 76 65 75 1567 -1
734 -4 1497 -7 1695 -4 198 -9 596 -13 885 -3 289 -8 527 -11 530 -2 2 -255 6
-561 7 -306 1 -749 4 -984 6 -235 3 -429 3 -431 1z m-163 -314 c43 -102 81
-188 85 -193 4 -4 96 29 206 73 109 44 200 79 201 77 2 -2 -32 -93 -76 -202
-44 -109 -77 -202 -73 -206 5 -5 92 -43 193 -86 102 -43 187 -82 188 -87 2 -4
-82 -44 -185 -88 -103 -44 -192 -83 -196 -87 -4 -5 28 -97 73 -206 44 -109 78
-200 76 -202 -2 -2 -93 32 -202 77 -109 44 -201 77 -205 73 -4 -5 -42 -91 -86
-193 -43 -102 -82 -186 -87 -188 -5 -2 -45 81 -88 185 -44 103 -83 191 -87
196 -4 4 -96 -29 -205 -73 -109 -45 -200 -79 -202 -77 -2 2 32 93 76 202 44
109 77 202 73 206 -5 4 -91 42 -193 85 -102 43 -189 81 -194 85 -5 5 3 13 18
19 68 26 362 152 369 159 4 4 -29 97 -73 206 -44 109 -78 200 -77 202 2 1 93
-33 202 -77 110 -44 202 -77 206 -72 7 6 134 301 159 368 6 15 14 23 19 18 4
-5 43 -92 85 -194z m-824 -1795 c19 -9 61 -40 94 -68 82 -71 118 -87 194 -87
74 0 109 16 202 90 89 72 136 92 221 92 92 0 152 -22 227 -83 83 -67 140 -91
216 -92 77 0 121 19 206 88 85 70 127 87 212 87 78 0 145 -26 230 -91 149
-112 270 -110 453 10 112 73 138 82 230 82 191 -1 315 -106 315 -268 l0 -65
-2076 0 -2077 0 6 61 c13 146 153 259 319 259 83 0 124 -14 204 -71 107 -76
180 -109 241 -109 71 0 94 11 198 90 50 38 104 74 120 80 78 30 201 28 265 -5z
m-5 -429 c27 -13 75 -45 105 -71 72 -62 121 -85 190 -85 69 0 118 23 190 85
82 71 149 99 235 99 93 0 132 -15 225 -85 99 -75 133 -89 215 -89 82 0 120 16
198 81 86 72 136 93 222 93 82 -1 123 -17 239 -93 176 -115 292 -109 499 27
93 61 162 79 238 63 73 -16 121 -44 172 -101 81 -90 77 -41 77 -949 0 -885 1
-871 -61 -993 -39 -77 -136 -176 -209 -213 -124 -63 -78 -59 -780 -65 -621 -6
-648 -7 -723 -28 -103 -28 -187 -74 -256 -139 -30 -29 -56 -53 -57 -53 0 0
-23 21 -50 46 -60 55 -202 126 -304 150 -67 16 -144 19 -690 24 -666 6 -627 3
-746 63 -112 57 -206 172 -247 302 -22 70 -22 71 -22 905 l0 835 22 40 c54
102 168 165 296 165 86 0 121 -15 248 -99 95 -64 138 -81 207 -81 55 0 102 23
188 92 38 31 84 63 102 72 80 41 192 42 277 2z m535 -2542 c0 -2 -9 0 -20 6
-11 6 -20 13 -20 16 0 2 9 0 20 -6 11 -6 20 -13 20 -16z"/>
<path d="M2656 5052 c-4 -45 -12 -85 -17 -88 -6 -3 -42 20 -82 52 l-71 58 58
-71 c32 -40 55 -77 52 -82 -3 -5 -45 -13 -94 -17 l-87 -8 87 -11 c48 -5 90
-13 94 -17 4 -4 -20 -40 -52 -80 l-58 -72 70 56 c39 31 75 53 81 50 6 -4 14
-43 18 -87 l9 -80 10 79 c7 46 16 81 24 84 6 2 42 -20 79 -50 l68 -53 -53 65
c-29 36 -51 72 -50 80 2 11 27 18 88 26 68 9 76 12 40 13 -75 3 -125 15 -128
31 -1 8 21 44 50 80 l53 65 -70 -56 c-38 -31 -74 -55 -81 -52 -6 2 -15 41 -21
86 l-9 82 -8 -83z"/>
<path d="M232 5810 c0 -14 2 -19 5 -12 2 6 2 18 0 25 -3 6 -5 1 -5 -13z"/>
<path d="M231 5744 c0 -11 3 -14 6 -6 3 7 2 16 -1 19 -3 4 -6 -2 -5 -13z"/>
<path d="M231 5704 c0 -11 3 -14 6 -6 3 7 2 16 -1 19 -3 4 -6 -2 -5 -13z"/>
<path d="M234 5475 c0 -55 1 -76 3 -47 2 29 2 74 0 100 -2 26 -3 2 -3 -53z"/>
<path d="M233 5240 c0 -36 2 -50 4 -32 2 17 2 47 0 65 -2 17 -4 3 -4 -33z"/>
<path d="M231 5154 c0 -11 3 -14 6 -6 3 7 2 16 -1 19 -3 4 -6 -2 -5 -13z"/>
<path d="M434 1015 c8 -7 13 -15 9 -18 -3 -4 1 -7 10 -7 14 0 15 3 6 18 -7 10
-18 19 -27 19 -12 0 -12 -2 2 -12z"/>
<path d="M1353 791 c27 -4 67 -4 90 0 31 5 18 6 -48 6 -72 0 -80 -1 -42 -6z"/>
<path d="M1563 793 c15 -2 37 -2 50 0 12 2 0 4 -28 4 -27 0 -38 -2 -22 -4z"/>
<path d="M3498 793 c7 -3 16 -2 19 1 4 3 -2 6 -13 5 -11 0 -14 -3 -6 -6z"/>
<path d="M3688 793 c6 -2 18 -2 25 0 6 3 1 5 -13 5 -14 0 -19 -2 -12 -5z"/>
<path d="M3738 793 c7 -3 16 -2 19 1 4 3 -2 6 -13 5 -11 0 -14 -3 -6 -6z"/>
</g>
</svg>
