<?xml version="1.0" standalone="no"?>
<!DOCTYPE svg PUBLIC "-//W3C//DTD SVG 20010904//EN"
 "http://www.w3.org/TR/2001/REC-SVG-20010904/DTD/svg10.dtd">
<svg version="1.0" xmlns="http://www.w3.org/2000/svg"
 width="512.000000pt" height="512.000000pt" viewBox="0 0 512.000000 512.000000"
 preserveAspectRatio="xMidYMid meet">

<g transform="translate(0.000000,512.000000) scale(0.100000,-0.100000)"
fill="#000000" stroke="none">
<path d="M1174 4820 c-57 -23 -54 25 -54 -967 l0 -913 100 0 100 0 0 845 0
845 1223 0 1222 0 307 -318 307 -317 1 -1752 0 -1753 -1530 0 -1530 0 0 365 0
365 -100 0 -100 0 0 -434 0 -435 24 -28 24 -28 1664 -3 c1239 -2 1670 1 1691
9 61 25 57 -104 57 1919 l0 1851 -159 167 c-88 92 -253 263 -368 380 l-208
213 -1325 -1 c-729 -1 -1335 -5 -1346 -10z"/>
<path d="M3650 4231 l0 -300 24 -28 24 -28 291 -3 291 -3 0 43 c0 40 -5 49
-58 101 l-58 57 -157 0 -157 0 0 161 0 160 -62 70 c-56 62 -66 69 -100 69
l-38 0 0 -299z"/>
<path d="M595 2828 c-11 -6 -28 -20 -37 -32 -16 -19 -18 -72 -18 -709 0 -751
-1 -732 57 -756 21 -8 410 -11 1521 -9 l1494 3 24 28 24 28 0 700 0 701 -29
29 -29 29 -1494 0 c-1066 -1 -1499 -4 -1513 -12z m2865 -748 l0 -560 -1360 0
-1360 0 0 560 0 560 1360 0 1360 0 0 -560z"/>
<path d="M1179 2441 c-24 -19 -24 -20 -27 -272 -2 -168 -7 -258 -14 -267 -9
-10 -27 -12 -74 -7 -58 7 -63 6 -77 -16 -9 -13 -19 -47 -22 -74 -9 -64 9 -82
97 -97 52 -9 73 -8 120 6 151 44 182 134 176 511 -3 193 -3 197 -27 216 -32
26 -120 26 -152 0z"/>
<path d="M1575 2448 c-76 -27 -128 -81 -150 -155 -19 -61 -13 -110 20 -169 28
-47 74 -81 167 -123 67 -30 93 -57 82 -85 -13 -35 -100 -37 -171 -5 -46 21
-46 21 -72 1 -34 -25 -58 -104 -42 -139 27 -60 201 -92 317 -58 144 41 213
199 145 333 -26 52 -50 70 -154 122 -71 35 -93 50 -95 67 -5 32 35 46 91 32
109 -28 125 -21 147 56 19 69 9 90 -55 114 -61 23 -177 27 -230 9z"/>
<path d="M2180 2451 c-94 -30 -173 -103 -217 -196 -26 -55 -28 -69 -28 -180 0
-116 1 -123 33 -187 40 -81 102 -139 181 -169 45 -17 72 -20 136 -17 95 5 155
29 217 87 148 136 154 435 11 578 -62 62 -123 87 -223 90 -47 1 -96 -1 -110
-6z m146 -187 c74 -35 110 -192 65 -290 -53 -116 -175 -121 -231 -9 -51 103
-20 257 60 297 43 22 63 22 106 2z"/>
<path d="M2669 2433 c-11 -13 -14 -82 -14 -355 0 -392 -7 -368 100 -368 93 0
95 4 95 191 l0 154 43 -68 c23 -38 72 -115 109 -173 l67 -104 69 0 c108 0 102
-22 102 373 0 389 6 367 -94 367 -93 0 -96 -5 -96 -179 0 -78 -4 -140 -8 -137
-5 3 -46 65 -92 138 -115 184 -108 178 -196 178 -54 0 -75 -4 -85 -17z"/>
</g>
</svg>
