<?xml version="1.0" standalone="no"?>
<!DOCTYPE svg PUBLIC "-//W3C//DTD SVG 20010904//EN"
 "http://www.w3.org/TR/2001/REC-SVG-20010904/DTD/svg10.dtd">
<svg version="1.0" xmlns="http://www.w3.org/2000/svg"
 width="840.000000pt" height="859.000000pt" viewBox="0 0 840.000000 859.000000"
 preserveAspectRatio="xMidYMid meet">

<g transform="translate(0.000000,859.000000) scale(0.100000,-0.100000)"
fill="#000000" stroke="none">
<path d="M3910 8460 c-593 -46 -1095 -182 -1595 -433 -425 -212 -794 -483
-1128 -827 -617 -635 -1008 -1427 -1137 -2305 -18 -121 -20 -188 -20 -602 0
-451 1 -472 26 -631 59 -383 155 -709 310 -1062 372 -844 1058 -1576 1877
-2000 520 -270 997 -407 1622 -467 141 -14 568 -7 735 11 861 93 1621 417
2285 975 134 112 377 359 496 502 216 262 377 509 528 809 224 448 354 883
418 1400 25 206 25 724 0 930 -119 967 -528 1813 -1201 2486 -685 683 -1571
1105 -2526 1200 -184 18 -540 25 -690 14z m-1153 -1846 c56 -27 101 -75 127
-138 13 -32 16 -84 16 -327 l0 -289 283 0 c163 0 298 -4 319 -10 59 -17 119
-69 152 -133 52 -102 33 -219 -48 -300 -72 -73 -67 -72 -403 -75 l-302 -3 -3
-297 c-3 -331 -5 -338 -76 -410 -51 -50 -105 -72 -183 -72 -109 0 -195 55
-240 155 -17 36 -19 71 -19 333 l0 292 -282 0 c-164 0 -299 4 -320 10 -99 28
-181 139 -181 248 -1 106 59 198 157 243 37 17 71 19 334 19 l292 0 0 290 c0
313 2 326 56 397 48 63 152 106 234 95 19 -2 58 -15 87 -28z m3910 -784 c97
-48 143 -124 143 -232 -1 -102 -49 -180 -144 -231 l-41 -22 -844 -3 -843 -2
-52 23 c-56 26 -94 61 -129 116 -18 30 -22 50 -22 122 0 82 2 88 37 141 29 45
49 62 99 87 l62 31 837 0 837 0 60 -30z m-778 -1955 c190 -96 187 -366 -4
-468 -31 -17 -58 -22 -115 -22 -57 0 -84 5 -115 22 -190 102 -194 370 -6 468
66 34 172 35 240 0z m-3846 -206 c26 -13 145 -124 320 -297 l277 -277 278 277
c174 173 293 284 319 297 29 14 61 21 103 21 102 0 179 -45 230 -133 38 -67
42 -164 9 -230 -13 -26 -124 -145 -297 -319 l-277 -278 277 -277 c173 -175
284 -294 297 -320 33 -66 29 -163 -9 -230 -70 -122 -215 -172 -330 -114 -30
15 -139 117 -322 299 l-278 277 -277 -277 c-180 -179 -294 -284 -323 -299 -62
-32 -148 -31 -214 2 -99 49 -167 166 -151 261 15 87 33 109 318 395 l281 283
-286 287 c-277 279 -287 290 -303 346 -35 121 19 242 135 302 61 32 163 34
223 4z m4625 -575 c55 -27 92 -65 121 -123 61 -121 15 -267 -107 -338 l-47
-28 -843 -3 c-551 -1 -856 1 -881 8 -61 16 -126 72 -157 136 -64 131 -12 283
118 348 l52 26 846 0 846 0 52 -26z m-781 -782 c52 -27 116 -100 131 -150 45
-149 -34 -294 -184 -338 -150 -43 -312 73 -322 232 -8 128 65 235 188 275 42
14 142 3 187 -19z"/>
</g>
</svg>
