<?xml version="1.0" standalone="no"?>
<!DOCTYPE svg PUBLIC "-//W3C//DTD SVG 20010904//EN"
 "http://www.w3.org/TR/2001/REC-SVG-20010904/DTD/svg10.dtd">
<svg version="1.0" xmlns="http://www.w3.org/2000/svg"
 width="840.000000pt" height="859.000000pt" viewBox="0 0 840.000000 859.000000"
 preserveAspectRatio="xMidYMid meet">

<g transform="translate(0.000000,859.000000) scale(0.100000,-0.100000)"
fill="#000000" stroke="none">
<path d="M2945 7330 c-38 -4 -185 -8 -325 -9 -140 -1 -286 -6 -325 -11 -38 -5
-131 -9 -205 -10 -74 0 -193 -4 -265 -10 -116 -9 -304 -21 -580 -37 -49 -3
-94 -9 -100 -12 -5 -4 -32 -9 -60 -10 -27 -1 -54 -7 -59 -12 -6 -5 -21 -9 -35
-9 -50 0 -260 -80 -269 -102 -2 -5 -12 -8 -23 -8 -10 0 -19 -3 -19 -7 -1 -5
-30 -28 -66 -53 -61 -42 -194 -165 -194 -180 0 -3 -8 -15 -18 -26 -25 -28 -72
-102 -72 -114 0 -5 -4 -10 -10 -10 -5 0 -10 -9 -10 -20 0 -11 -4 -20 -10 -20
-5 0 -10 -11 -10 -24 0 -13 -3 -26 -7 -28 -7 -3 -23 -41 -54 -128 -6 -19 -15
-44 -19 -55 -20 -56 -30 -94 -30 -113 0 -12 -4 -22 -9 -22 -5 0 -12 -17 -15
-37 -44 -258 -76 -567 -108 -1053 -14 -227 -14 -1604 1 -1835 22 -347 44 -597
66 -760 9 -66 19 -148 22 -183 3 -34 9 -62 14 -62 5 0 9 -18 9 -39 0 -22 5
-43 10 -46 6 -3 10 -19 10 -36 0 -16 5 -29 10 -29 6 0 10 -13 10 -28 0 -15 4
-32 8 -37 4 -6 16 -35 26 -65 10 -30 22 -65 27 -77 5 -13 13 -33 18 -45 19
-48 56 -118 63 -118 5 0 8 -5 8 -10 0 -24 79 -130 134 -179 16 -14 42 -38 58
-53 17 -16 33 -28 37 -28 3 0 22 -14 41 -30 19 -16 41 -30 48 -30 6 0 12 -4
12 -10 0 -5 9 -10 19 -10 11 0 21 -4 23 -8 4 -12 190 -82 216 -82 12 0 22 -4
22 -10 0 -5 13 -10 28 -10 15 0 32 -4 38 -9 5 -5 37 -11 72 -13 34 -1 62 -6
62 -10 0 -3 35 -9 77 -11 43 -3 137 -10 208 -16 268 -23 404 -31 521 -31 67 0
156 -4 200 -10 43 -5 192 -12 329 -15 138 -2 459 -10 715 -16 782 -20 2097
-12 2630 16 52 2 172 7 265 10 94 3 197 7 230 10 33 2 123 6 200 10 77 3 248
12 380 21 132 9 276 18 320 21 44 2 84 9 90 14 5 5 31 9 57 9 26 0 48 5 48 10
0 6 14 10 30 10 17 0 30 5 30 10 0 6 8 10 18 10 10 0 40 11 68 23 27 13 64 30
82 38 17 8 32 17 32 21 0 5 9 8 20 8 11 0 20 4 20 8 0 4 13 16 29 25 50 29
155 126 221 203 40 46 100 142 100 159 0 8 5 15 10 15 6 0 10 9 10 19 0 11 5
23 10 26 6 3 10 15 10 25 0 10 4 20 8 22 4 2 21 44 37 93 16 50 32 94 37 100
4 5 8 22 8 37 0 15 5 28 10 28 6 0 10 18 10 39 0 22 5 43 10 46 5 3 10 26 10
50 0 24 4 46 9 49 7 5 12 35 22 146 1 8 8 71 16 140 13 119 23 232 45 525 12
167 20 1955 9 1969 -5 6 -12 70 -15 141 -8 166 -30 439 -50 605 -3 19 -8 62
-12 95 -4 33 -10 65 -14 70 -4 6 -11 35 -14 65 -14 108 -18 130 -27 136 -5 3
-9 14 -9 25 0 10 -4 27 -9 37 -13 26 -52 143 -58 175 -3 15 -9 27 -14 27 -5 0
-9 9 -9 20 0 11 -4 20 -10 20 -5 0 -10 7 -10 15 0 15 -40 91 -71 137 -11 14
-19 29 -19 33 0 3 -39 45 -87 93 -88 88 -181 162 -202 162 -6 0 -11 4 -11 8 0
12 -107 63 -190 92 -19 7 -44 16 -55 20 -22 9 -63 17 -140 26 -27 4 -54 10
-60 14 -5 4 -66 10 -135 14 -69 4 -141 9 -160 11 -19 2 -129 9 -243 15 -115 5
-212 12 -216 14 -3 3 -92 6 -195 7 -104 1 -210 6 -235 10 -25 4 -174 11 -331
14 -404 9 -2721 13 -2805 5z m445 -1739 c8 -10 129 -77 207 -115 13 -6 23 -14
23 -18 0 -5 7 -8 16 -8 9 0 28 -8 42 -18 15 -11 52 -32 82 -48 30 -16 57 -32
58 -36 2 -5 12 -8 23 -8 10 0 19 -4 19 -10 0 -5 7 -10 15 -10 9 0 26 -6 38
-14 49 -31 113 -67 130 -73 9 -3 17 -9 17 -14 0 -5 9 -9 19 -9 11 0 21 -3 23
-7 2 -5 47 -30 101 -58 53 -27 97 -53 97 -57 0 -4 9 -8 20 -8 11 0 20 -3 20
-7 0 -5 29 -21 65 -37 36 -16 65 -33 65 -37 0 -5 8 -9 18 -9 10 0 28 -9 40
-20 12 -11 28 -20 36 -20 8 0 16 -3 18 -7 3 -7 106 -64 175 -97 13 -6 23 -14
23 -18 0 -5 9 -8 19 -8 11 0 21 -3 23 -7 2 -7 90 -55 175 -97 13 -6 23 -14 23
-18 0 -5 9 -8 20 -8 11 0 20 -3 20 -7 0 -5 19 -17 43 -28 23 -11 44 -22 47
-25 3 -3 28 -16 55 -30 28 -14 52 -28 53 -32 2 -5 12 -8 23 -8 10 0 19 -3 19
-7 0 -5 19 -17 43 -28 23 -11 44 -22 47 -25 3 -3 28 -16 55 -30 28 -14 52 -28
53 -32 2 -5 12 -8 23 -8 10 0 19 -4 19 -10 0 -5 6 -10 14 -10 7 0 18 -6 24
-13 13 -16 -3 -32 -63 -62 -22 -11 -41 -23 -43 -27 -2 -5 -12 -8 -23 -8 -10 0
-19 -4 -19 -10 0 -5 -9 -10 -20 -10 -11 0 -20 -4 -20 -8 0 -5 -35 -26 -77 -47
-43 -21 -79 -42 -81 -47 -2 -4 -12 -8 -23 -8 -10 0 -19 -4 -19 -10 0 -5 -9
-10 -20 -10 -11 0 -20 -3 -20 -8 0 -4 -44 -30 -97 -57 -54 -28 -99 -53 -101
-57 -2 -5 -12 -8 -23 -8 -10 0 -19 -3 -19 -8 0 -4 -53 -34 -117 -67 -65 -33
-120 -63 -123 -66 -11 -12 -103 -59 -116 -59 -8 0 -14 -4 -14 -10 0 -5 -9 -10
-20 -10 -11 0 -20 -3 -20 -8 0 -4 -15 -13 -32 -21 -18 -8 -35 -17 -38 -21 -3
-3 -32 -19 -65 -35 -33 -17 -61 -33 -63 -37 -2 -5 -12 -8 -23 -8 -10 0 -19 -4
-19 -10 0 -5 -9 -10 -20 -10 -11 0 -20 -4 -20 -10 0 -5 -7 -10 -15 -10 -8 0
-15 -4 -15 -10 0 -5 -9 -10 -20 -10 -11 0 -20 -4 -20 -9 0 -5 -20 -17 -45 -28
-25 -10 -45 -21 -45 -25 0 -5 -9 -8 -20 -8 -11 0 -20 -4 -20 -10 0 -5 -9 -10
-20 -10 -11 0 -20 -4 -20 -10 0 -5 -7 -10 -15 -10 -8 0 -15 -4 -15 -10 0 -5
-9 -10 -20 -10 -11 0 -20 -4 -20 -9 0 -5 -20 -17 -45 -28 -25 -10 -45 -21 -45
-25 0 -5 -9 -8 -20 -8 -11 0 -20 -4 -20 -8 0 -4 -53 -35 -117 -67 -65 -33
-120 -63 -123 -66 -3 -3 -41 -23 -85 -45 -44 -21 -81 -42 -83 -46 -2 -5 -12
-8 -23 -8 -19 0 -19 24 -19 1213 0 668 3 1216 6 1219 6 6 46 -2 54 -11z"/>
</g>
</svg>
